<svg height="512pt" viewBox="-15 0 512 512" width="512pt" xmlns="http://www.w3.org/2000/svg"><path d="m393.863281 332c-14.089843 0-29.839843-2.984375-46.816406-8.996094-37.554687-13.300781-77.800781-40.191406-113.332031-75.71875-35.527344-35.53125-62.417969-75.777344-75.71875-113.332031-14.605469-41.238281-11.34375-75.257813 9.179687-95.777344 20.519531-20.523437 54.535157-23.785156 95.777344-9.179687 37.554687 13.300781 77.800781 40.191406 113.328125 75.722656 35.53125 35.527344 62.421875 75.773438 75.722656 113.328125 14.605469 41.242187 11.34375 75.257813-9.179687 95.777344-12.070313 12.074219-28.820313 18.175781-48.960938 18.175781zm-177.617187-281.992188c-12.027344 0-21.617188 3.136719-27.863282 9.378907-11.71875 11.71875-12.488281 35.25-2.109374 64.554687 11.835937 33.425782 36.21875 69.699219 68.652343 102.132813 32.4375 32.433593 68.707031 56.816406 102.132813 68.652343 29.304687 10.378907 52.835937 9.609376 64.558594-2.113281 11.71875-11.71875 12.488281-35.25 2.109374-64.554687-11.835937-33.425782-36.21875-69.699219-68.652343-102.132813-32.4375-32.433593-68.707031-56.816406-102.132813-68.652343-13.699218-4.851563-26.136718-7.265626-36.695312-7.265626zm0 0" fill="#27d8f6"/><path d="m357.058594 294.726562c-33.425782-11.835937-69.699219-36.21875-102.132813-68.652343-32.433593-32.4375-56.816406-68.707031-68.652343-102.132813-10.378907-29.304687-9.609376-52.835937 2.109374-64.554687l-21.207031-21.210938c-20.523437 20.519531-23.785156 54.539063-9.179687 95.777344 13.300781 37.554687 40.191406 77.800781 75.71875 113.332031 35.53125 35.527344 75.777344 62.417969 113.332031 75.71875 16.976563 6.011719 32.726563 8.996094 46.816406 8.996094 20.140625 0 36.890625-6.101562 48.960938-18.175781l-21.207031-21.207031c-11.722657 11.71875-35.253907 12.488281-64.558594 2.109374zm0 0" fill="#00c0f1"/><path d="m167.175781 313.824219c-20.523437-20.519531-23.785156-54.535157-9.179687-95.777344 13.300781-37.554687 40.191406-77.800781 75.71875-113.328125 35.53125-35.53125 75.777344-62.421875 113.332031-75.722656 41.242187-14.605469 75.257813-11.34375 95.777344 9.179687 20.523437 20.519531 23.78125 54.539063 9.179687 95.777344-13.300781 37.554687-40.191406 77.800781-75.722656 113.332031-35.527344 35.527344-75.773438 62.417969-113.328125 75.71875-16.976563 6.011719-32.726563 8.996094-46.820313 8.996094-20.136718 0-36.886718-6.101562-48.957031-18.175781zm189.882813-256.550781c-33.425782 11.835937-69.699219 36.21875-102.132813 68.652343-32.433593 32.4375-56.816406 68.707031-68.652343 102.132813-10.378907 29.304687-9.609376 52.835937 2.109374 64.554687 11.722657 11.722657 35.253907 12.492188 64.558594 2.113281 33.425782-11.835937 69.699219-36.21875 102.132813-68.652343 32.433593-32.4375 56.816406-68.707031 68.652343-102.132813 10.378907-29.304687 9.609376-52.835937-2.109374-64.554687-6.242188-6.242188-15.835938-9.378907-27.863282-9.378907-10.558594 0-22.996094 2.414063-36.695312 7.265626zm0 0" fill="#76e2f8"/><path d="m252.941406 294.726562c33.425782-11.835937 69.699219-36.21875 102.132813-68.652343 32.433593-32.4375 56.816406-68.707031 68.652343-102.132813 10.378907-29.304687 9.609376-52.835937-2.109374-64.554687l21.207031-21.210938c20.523437 20.519531 23.785156 54.539063 9.179687 95.777344-13.300781 37.554687-40.191406 77.800781-75.71875 113.332031-35.53125 35.527344-75.777344 62.417969-113.332031 75.71875-16.976563 6.011719-32.726563 8.996094-46.816406 8.996094-20.140625 0-36.890625-6.101562-48.960938-18.175781l21.207031-21.207031c11.722657 11.71875 35.253907 12.488281 64.558594 2.109374zm0 0" fill="#00cef5"/><path d="m436 0c-24.8125 0-45 20.1875-45 45s20.1875 45 45 45 45-20.1875 45-45-20.1875-45-45-45zm0 0" fill="#ffdc55"/><path d="m467.804688 13.195312-63.609376 63.609376c8.148438 8.148437 19.398438 13.195312 31.804688 13.195312 24.8125 0 45-20.1875 45-45 0-12.40625-5.046875-23.65625-13.195312-31.804688zm0 0" fill="#ffcd00"/><path d="m305 131c-24.8125 0-45 20.1875-45 45s20.1875 45 45 45 45-20.1875 45-45-20.1875-45-45-45zm0 0" fill="#ffdc55"/><path d="m336.804688 144.195312-63.609376 63.609376c8.148438 8.148437 19.398438 13.195312 31.804688 13.195312 24.8125 0 45-20.1875 45-45 0-12.40625-5.046875-23.65625-13.195312-31.804688zm0 0" fill="#ffcd00"/><path d="m236.390625 380h-202.78125c-18.5625 0-33.609375 13.429688-33.609375 30v102h270v-102c0-16.570312-15.046875-30-33.609375-30zm0 0" fill="#8ee16a"/><path d="m236.390625 380h-101.390625v132h135v-102c0-16.570312-15.046875-30-33.609375-30zm0 0" fill="#00ca76"/><path d="m90 302v78l45 90 45-90v-78zm0 0" fill="#ffa68d"/><path d="m135 302v168l45-90v-78zm0 0" fill="#f69380"/><path d="m40.714844 201.855469v35.859375c0 51.988281 42.296875 94.285156 94.285156 94.285156s94.285156-42.296875 94.285156-94.285156v-35.859375l-94.285156-36.855469zm0 0" fill="#ffcdbe"/><path d="m135 332c51.988281 0 94.285156-42.296875 94.285156-94.285156v-35.859375l-94.285156-36.855469zm0 0" fill="#ffbeaa"/><path d="m229.285156 162c0-24.8125-20.1875-45-45-45h-98.570312c-24.8125 0-45 20.1875-45 45v39.855469h188.570312zm0 0" fill="#8ee16a"/><path d="m229.285156 162c0-24.8125-20.1875-45-45-45h-49.285156v84.855469h94.285156zm0 0" fill="#00ca76"/></svg>